<svg xmlns="http://www.w3.org/2000/svg" viewBox="0 0 380.95 83.07"><defs><style>.cls-1{fill:#fff;}.cls-2{fill:#bcbec0;}</style></defs><g id="Layer_2" data-name="Layer 2"><g id="Layer_1-2" data-name="Layer 1"><path id="path877-0" class="cls-1" d="M55.45,82.77a1.36,1.36,0,0,1-1.27-.87L36.24,34.36a2.94,2.94,0,0,0-3-2.06,3.08,3.08,0,0,0-3,2.06L11.52,81.92a1.33,1.33,0,0,1-1.25.85H.89c-.75,0-1.08-.51-.78-1.3L20.73,29.28a11.36,11.36,0,0,1,4.76-6,16,16,0,0,1,7.9-1.74,15.8,15.8,0,0,1,7.8,1.74,11.07,11.07,0,0,1,4.68,6L65.76,81.62c.33.74.19,1.15-.56,1.15"/><path id="path879-4" class="cls-1" d="M88.91,22.89a1.37,1.37,0,0,1,1.37,1.38V81.7a1.37,1.37,0,0,1-1.38,1.37H81.14a1.37,1.37,0,0,1-1.38-1.37V24.27a1.38,1.38,0,0,1,1.38-1.38Z"/><path id="path881-5" class="cls-1" d="M136.74,22.89a23.4,23.4,0,0,1,8.74,1.48,17,17,0,0,1,6,3.91A15.23,15.23,0,0,1,155,34a21.36,21.36,0,0,1,1.11,6.87,22.62,22.62,0,0,1-.72,5.65,18.38,18.38,0,0,1-2.22,5.26,15.91,15.91,0,0,1-3.92,4.32A16.94,16.94,0,0,1,143.34,59L156.7,82c.23.45.17,1.1-.48,1.1h-9.76a1.4,1.4,0,0,1-1.2-.68L132.34,60.48a1.39,1.39,0,0,0-1.21-.69H117.64a2.91,2.91,0,0,0-2.91,2.91v19a1.35,1.35,0,0,1-1.36,1.35h-7.81a1.34,1.34,0,0,1-1.35-1.35V59.26q0-5.05,2.23-7.31c1.48-1.47,3.88-2.22,7.21-2.22H137.1a9.68,9.68,0,0,0,3.84-.71,7,7,0,0,0,2.58-1.89A7.68,7.68,0,0,0,145,44.47a10.33,10.33,0,0,0,.49-3.12,8.38,8.38,0,0,0-2-5.58q-2-2.35-6.38-2.36H105.47a1.36,1.36,0,0,1-1.35-1.36v-7.8a1.36,1.36,0,0,1,1.35-1.36h31.27"/><path id="path887-7" class="cls-2" d="M307.79,71.65c0,.67.39,1,1.16,1h20.5c3.21,0,5.57-.69,7.05-2.07a7.44,7.44,0,0,0,2.23-5.79q0-7.76-9.28-7.76H307.79Zm0-23.35h21.4c6.18,0,9.27-2.4,9.27-7.23a7.64,7.64,0,0,0-2.18-5.69c-1.46-1.44-3.79-2.15-7-2.15H309c-.77,0-1.16.36-1.16,1.07Zm21.13-25.41a30.83,30.83,0,0,1,9.14,1.2,17,17,0,0,1,6.24,3.4,13.18,13.18,0,0,1,3.61,5.21,18.63,18.63,0,0,1,1.16,6.68,14.82,14.82,0,0,1-2.18,8.47,13.6,13.6,0,0,1-6.47,4.91,14.55,14.55,0,0,1,6.6,5.13,14.73,14.73,0,0,1,2.32,8.6,18.72,18.72,0,0,1-1.16,6.69,13.18,13.18,0,0,1-3.61,5.21,17.61,17.61,0,0,1-6.24,3.43,29.47,29.47,0,0,1-9.14,1.25H302.45c-3.33,0-5-1.64-5-4.9V27.8c0-3.28,1.67-4.91,5-4.91h26.47"/><path id="rect1078-5-2" class="cls-2" d="M178.73,3.88h-4.39A3.21,3.21,0,0,0,171,7v7.4a3.2,3.2,0,0,0,3.32,3.07h4.39a3.2,3.2,0,0,0,3.32-3.07V7A3.21,3.21,0,0,0,178.73,3.88Z"/><circle id="path1119-4-65" class="cls-2" cx="176.53" cy="2.98" r="2.76"/><path class="cls-2" d="M177.64.74s5.8-1.24,16.2-.44,24.4.28,24.4.28l-.37.63S197.22,2.33,189.6,2.93c-2.36.19-5.26,0-6.68.08a31,31,0,0,1-5.56-1.25Z"/><path class="cls-2" d="M176.06,1.35l-.7-.49L168.92.3,135.4.39l2.9.56s26.3.94,29.62,1.75S176.06,1.35,176.06,1.35Z"/><path id="path883-12" class="cls-2" d="M180.18,22.89a1.36,1.36,0,0,1,1.36,1.36v38a13.72,13.72,0,0,0,.58,4.05,7.38,7.38,0,0,0,2,3.3,10.14,10.14,0,0,0,3.79,2.2,19.15,19.15,0,0,0,5.93.78h22a1.35,1.35,0,0,1,1.36,1.35v7.83a1.35,1.35,0,0,1-1.36,1.35H193.22A29.87,29.87,0,0,1,183,81.51a18.12,18.12,0,0,1-6.91-4.32,16.65,16.65,0,0,1-3.88-6.55A27.55,27.55,0,0,1,171,62.3V24.24a1.36,1.36,0,0,1,1.35-1.35Z"/><path id="rect1078-5-2-2" data-name="rect1078-5-2" class="cls-2" d="M341.43,3.91h-4.38A3.2,3.2,0,0,0,333.73,7v7.39a3.2,3.2,0,0,0,3.32,3.08h4.38a3.2,3.2,0,0,0,3.32-3.08V7A3.2,3.2,0,0,0,341.43,3.91Z"/><circle id="path1119-4-65-2" data-name="path1119-4-65" class="cls-2" cx="339.24" cy="3.01" r="2.76"/><path class="cls-2" d="M338.77,1.38l-.7-.49L331.63.33,298.11.42,301,1s26.3.93,29.62,1.74S338.77,1.38,338.77,1.38Z"/><path class="cls-2" d="M340.34.7s5.81-1.23,16.2-.43S381,.55,381,.55l-.38.62S359.92,2.3,352.3,2.9C350,3.08,347,3,345.62,3a31,31,0,0,1-5.56-1.25Z"/><path class="cls-2" d="M279,1.08H236.71a11.65,11.65,0,0,0-11.8,11.49v5.55a11.64,11.64,0,0,0,11.8,11.48H279a11.64,11.64,0,0,0,11.8-11.48V12.57A11.65,11.65,0,0,0,279,1.08ZM257.87,21.61a6.52,6.52,0,1,1,6.52-6.51A6.51,6.51,0,0,1,257.87,21.61Z"/><path class="cls-2" d="M270.79,29.77c0-.11-.12-.27-.17-.37s-2.51-4.67-4.54-5.84a9,9,0,0,0-1.74-.7.88.88,0,0,0-1,.36,6.43,6.43,0,0,1-5.44,3,6.37,6.37,0,0,1-5.23-2.81.92.92,0,0,0-1-.33,5.71,5.71,0,0,0-1.07.44c-2,1.17-4.62,5.85-4.62,5.85a2,2,0,0,0-.17.36L225.4,81.83a.91.91,0,0,0,.85,1.24h9.9a.34.34,0,0,0,.28-.18l.11-.25c.05-.1.12-.27.16-.37l18.5-47.42a2,2,0,0,1,.19-.35s1.47-1.9,2.88-1.9,2.79,1.9,2.79,1.9a1.48,1.48,0,0,1,.19.35l17.8,47.63a.92.92,0,0,0,.86.59h9.61a.9.9,0,0,0,.85-1.23Z"/><path class="cls-2" d="M249.37,15.34A6.39,6.39,0,0,1,252,10.27l-80.89,1.88,0,2,80.15,5.68A6.47,6.47,0,0,1,249.37,15.34Z"/><path class="cls-2" d="M269.72,15.1a6.47,6.47,0,0,1-1.8,4.45l76.81-5.44-.06-2-77.05-1.79A6.43,6.43,0,0,1,269.72,15.1Z"/><path class="cls-2" d="M262.05,15h.47c0-.22.35-.28.32-.5a5.24,5.24,0,0,0-4.33-4.29c-.21,0,0,0-.23,0l-.41.4v.37c.21,0,.21.38.41.41a4.28,4.28,0,0,1,3.37,3.25C261.68,14.74,262,14.76,262.05,15Z"/><circle class="cls-2" cx="258.28" cy="10.89" r="0.4"/><circle class="cls-2" cx="262.05" cy="14.55" r="0.4"/><circle class="cls-2" cx="262.45" cy="14.55" r="0.4"/><circle class="cls-2" cx="258.28" cy="10.52" r="0.4"/></g></g></svg>